<svg width="2009" height="1049" viewBox="0 0 2009 1049" fill="none" xmlns="http://www.w3.org/2000/svg">
<rect x="31" y="15" width="49" height="99" fill="#D9D9D9"/>
<rect x="315" y="130" width="49" height="99" fill="#D9D9D9"/>
<rect x="475" y="130" width="49" height="99" fill="#D9D9D9"/>
<rect x="537" y="161" width="49" height="99" fill="#D9D9D9"/>
<rect x="426" y="370" width="67" height="99" fill="#D9D9D9"/>
<rect x="516" y="370" width="67" height="99" fill="#D9D9D9"/>
<rect x="358" y="361" width="49" height="99" fill="#D9D9D9"/>
<rect x="296" y="361" width="49" height="99" fill="#D9D9D9"/>
<rect x="230" y="361" width="49" height="99" fill="#D9D9D9"/>
<rect x="163" y="361" width="49" height="99" fill="#D9D9D9"/>
<rect x="99" y="361" width="49" height="99" fill="#D9D9D9"/>
<rect x="31" y="361" width="49" height="99" fill="#D9D9D9"/>
<rect x="444" y="479" width="49" height="99" fill="#D9D9D9"/>
<rect x="423" y="600" width="49" height="99" fill="#D9D9D9"/>
<rect x="377" y="715" width="49" height="99" fill="#D9D9D9"/>
<rect x="511" y="715" width="49" height="99" fill="#D9D9D9"/>
<rect x="1294" y="715" width="49" height="99" fill="#D9D9D9"/>
<rect x="1228" y="829" width="49" height="99" fill="#D9D9D9"/>
<rect x="1761" y="145" width="72" height="99" fill="#D9D9D9"/>
<rect x="1913" y="828" width="49" height="99" fill="#D9D9D9"/>
<rect x="1848" y="829" width="49" height="99" fill="#D9D9D9"/>
<rect x="1733" y="829" width="49" height="99" fill="#D9D9D9"/>
<rect x="1667" y="829" width="49" height="99" fill="#D9D9D9"/>
<rect x="1601" y="828" width="49" height="99" fill="#D9D9D9"/>
<rect x="1534" y="829" width="49" height="99" fill="#D9D9D9"/>
<rect x="1421" y="829" width="98" height="99" fill="#D9D9D9"/>
<rect x="1359" y="829" width="49" height="99" fill="#D9D9D9"/>
<rect x="1295" y="829" width="49" height="101" fill="#D9D9D9"/>
<rect x="1295" y="930" width="49" height="99" fill="#D9D9D9"/>
<rect x="1228" y="928" width="49" height="99" fill="#D9D9D9"/>
<rect x="1100" y="928" width="46" height="101" fill="#D9D9D9"/>
<rect x="1051" y="928" width="49" height="101" fill="#D9D9D9"/>
<rect x="1162" y="829" width="49" height="99" fill="#D9D9D9"/>
<rect x="1097" y="829" width="49" height="99" fill="#D9D9D9"/>
<rect x="988" y="829" width="92" height="99" fill="#D9D9D9"/>
<rect x="856" y="927" width="49" height="102" fill="#D9D9D9"/>
<rect x="923" y="828" width="49" height="99" fill="#D9D9D9"/>
<rect x="856" y="828" width="49" height="99" fill="#D9D9D9"/>
<rect x="1934" y="605" width="49" height="99" fill="#D9D9D9"/>
<rect x="1825" y="715" width="49" height="99" fill="#D9D9D9"/>
<rect x="1758" y="715" width="49" height="99" fill="#D9D9D9"/>
<rect x="1624" y="714" width="49" height="99" fill="#D9D9D9"/>
<rect x="1425" y="714" width="49" height="99" fill="#D9D9D9"/>
<rect x="1231" y="715" width="49" height="99" fill="#D9D9D9"/>
<rect x="1168" y="715" width="49" height="99" fill="#D9D9D9"/>
<rect x="1100" y="715" width="49" height="99" fill="#D9D9D9"/>
<rect x="1037" y="714" width="49" height="99" fill="#D9D9D9"/>
<rect x="969" y="715" width="49" height="99" fill="#D9D9D9"/>
<rect x="903" y="715" width="49" height="99" fill="#D9D9D9"/>
<rect x="837" y="714" width="49" height="99" fill="#D9D9D9"/>
<rect x="771" y="715" width="49" height="99" fill="#D9D9D9"/>
<rect x="789" y="930" width="49" height="99" fill="#D9D9D9"/>
<rect x="683" y="828" width="49" height="99" fill="#D9D9D9"/>
<rect x="1362" y="715" width="49" height="99" fill="#D9D9D9"/>
<rect x="1892" y="715" width="49" height="99" fill="#D9D9D9"/>
<rect x="1689" y="715" width="49" height="99" fill="#D9D9D9"/>
<rect x="1557" y="714" width="49" height="99" fill="#D9D9D9"/>
<rect x="1491" y="715" width="49" height="99" fill="#D9D9D9"/>
<rect x="707" y="715" width="49" height="99" fill="#D9D9D9"/>
<rect x="643" y="715" width="49" height="99" fill="#D9D9D9"/>
<rect x="577" y="715" width="49" height="99" fill="#D9D9D9"/>
<rect x="309" y="715" width="49" height="99" fill="#D9D9D9"/>
<rect x="184" y="715" width="88" height="99" fill="#D9D9D9"/>
<rect x="99" y="715" width="49" height="99" fill="#D9D9D9"/>
<rect x="31" y="715" width="49" height="99" fill="#D9D9D9"/>
<rect x="163" y="600" width="49" height="99" fill="#D9D9D9"/>
<rect x="31" y="601" width="49" height="99" fill="#D9D9D9"/>
<rect x="99" y="600" width="49" height="99" fill="#D9D9D9"/>
<rect x="230" y="601" width="49" height="99" fill="#D9D9D9"/>
<rect x="296" y="600" width="49" height="99" fill="#D9D9D9"/>
<rect x="358" y="601" width="49" height="99" fill="#D9D9D9"/>
<rect x="553" y="601" width="49" height="99" fill="#D9D9D9"/>
<rect x="686" y="600" width="49" height="99" fill="#D9D9D9"/>
<rect x="774" y="601" width="49" height="99" fill="#D9D9D9"/>
<rect x="1848" y="605" width="69" height="99" fill="#D9D9D9"/>
<rect x="1760" y="605" width="68" height="99" fill="#D9D9D9"/>
<rect x="1692" y="605" width="49" height="99" fill="#D9D9D9"/>
<rect x="902" y="479" width="49" height="99" fill="#D9D9D9"/>
<rect x="838" y="479" width="49" height="99" fill="#D9D9D9"/>
<rect x="774" y="479" width="49" height="99" fill="#D9D9D9"/>
<rect x="707" y="479" width="49" height="99" fill="#D9D9D9"/>
<rect x="641" y="479" width="49" height="99" fill="#D9D9D9"/>
<rect x="577" y="479" width="49" height="99" fill="#D9D9D9"/>
<rect x="511" y="479" width="49" height="99" fill="#D9D9D9"/>
<rect x="380" y="479" width="49" height="99" fill="#D9D9D9"/>
<rect x="296" y="479" width="62" height="99" fill="#D9D9D9"/>
<rect x="230" y="479" width="49" height="99" fill="#D9D9D9"/>
<rect x="163" y="479" width="49" height="99" fill="#D9D9D9"/>
<rect x="99" y="479" width="49" height="99" fill="#D9D9D9"/>
<rect x="31" y="479" width="49" height="99" fill="#D9D9D9"/>
<rect x="31" y="248" width="49" height="99" fill="#D9D9D9"/>
<rect x="99" y="248" width="49" height="99" fill="#D9D9D9"/>
<rect x="163" y="248" width="49" height="99" fill="#D9D9D9"/>
<rect x="230" y="248" width="49" height="99" fill="#D9D9D9"/>
<rect x="301" y="248" width="49" height="99" fill="#D9D9D9"/>
<rect x="350" y="248" width="49" height="99" fill="#D9D9D9"/>
<rect x="426" y="248" width="49" height="99" fill="#D9D9D9"/>
<rect x="516" y="276" width="69" height="71" fill="#D9D9D9"/>
<rect x="413" y="130" width="49" height="99" fill="#D9D9D9"/>
<rect x="364" y="130" width="49" height="99" fill="#D9D9D9"/>
<rect x="235" y="131" width="61" height="99" fill="#D9D9D9"/>
<rect x="163" y="130" width="49" height="99" fill="#D9D9D9"/>
<rect x="99" y="130" width="49" height="99" fill="#D9D9D9"/>
<rect x="31" y="130" width="49" height="99" fill="#D9D9D9"/>
<rect x="1365" y="188" width="112" height="234" fill="#D9D9D9"/>
<rect x="1211" y="188" width="116" height="234" fill="#D9D9D9"/>
<rect x="1065" y="188" width="108" height="234" fill="#D9D9D9"/>
<rect x="714" y="188" width="131" height="234" fill="#D9D9D9"/>
<rect x="690" y="23" width="49" height="99" fill="#D9D9D9"/>
<rect x="758" y="23" width="49" height="99" fill="#D9D9D9"/>
<rect x="629" y="23" width="49" height="99" fill="#D9D9D9"/>
<rect x="561" y="48" width="49" height="99" fill="#D9D9D9"/>
<rect x="493" y="15" width="49" height="99" fill="#D9D9D9"/>
<rect x="429" y="15" width="49" height="99" fill="#D9D9D9"/>
<rect x="364" y="15" width="49" height="99" fill="#D9D9D9"/>
<rect x="290" y="15" width="49" height="99" fill="#D9D9D9"/>
<rect x="241" y="15" width="49" height="99" fill="#D9D9D9"/>
<rect x="163" y="15" width="49" height="99" fill="#D9D9D9"/>
<rect x="99" y="15" width="49" height="99" fill="#D9D9D9"/>
<rect x="826" y="23" width="49" height="99" fill="#D9D9D9"/>
<rect x="887" y="23" width="49" height="99" fill="#D9D9D9"/>
<rect x="975" y="23" width="49" height="99" fill="#D9D9D9"/>
<rect x="1041" y="23" width="49" height="99" fill="#D9D9D9"/>
<rect x="1107" y="23" width="49" height="99" fill="#D9D9D9"/>
<rect x="1173" y="23" width="49" height="99" fill="#D9D9D9"/>
<rect x="1260" y="23" width="67" height="99" fill="#D9D9D9"/>
<rect x="1345" y="23" width="49" height="99" fill="#D9D9D9"/>
<rect x="1411" y="23" width="49" height="99" fill="#D9D9D9"/>
<rect x="1477" y="23" width="49" height="99" fill="#D9D9D9"/>
<rect x="1543" y="23" width="49" height="99" fill="#D9D9D9"/>
<rect x="1538" y="215" width="49" height="99" fill="#D9D9D9"/>
<rect x="1632" y="31" width="65" height="99" fill="#D9D9D9"/>
<rect x="1721" y="31" width="64" height="99" fill="#D9D9D9"/>
<rect x="1809" y="31" width="49" height="99" fill="#D9D9D9"/>
<rect x="1875" y="31" width="49" height="99" fill="#D9D9D9"/>
<rect x="1941" y="31" width="49" height="99" fill="#D9D9D9"/>
<line x1="647.5" y1="145" x2="647.5" y2="468.014" stroke="white" stroke-width="5"/>
<line x1="1586.5" y1="145" x2="1586.5" y2="474.005" stroke="white" stroke-width="5"/>
<line x1="967.5" y1="494" x2="967.5" y2="590" stroke="white" stroke-width="5"/>
<line x1="2006.25" y1="0.999875" x2="2006.25" y2="502.001" stroke="white" stroke-width="5"/>
<line x1="2004.25" y1="589.993" x2="2004.25" y2="1049.01" stroke="white" stroke-width="5"/>
<line x1="2.5" y1="1" x2="2.49829" y2="1045" stroke="white" stroke-width="5"/>
<line x1="1587.01" y1="471.485" x2="1057.99" y2="471.485" stroke="white" stroke-width="5"/>
<line x1="2008.01" y1="496.5" x2="1055.99" y2="496.5" stroke="white" stroke-width="5"/>
<line x1="2006" y1="592.5" x2="965" y2="592.5" stroke="white" stroke-width="5"/>
<line x1="2007" y1="3.31193" x2="-0.000854492" y2="3.31193" stroke="white" stroke-width="5"/>
<line x1="2004.08" y1="1046.5" x2="-0.000488281" y2="1046.5" stroke="white" stroke-width="5"/>
<line x1="1587" y1="147.375" x2="649" y2="147.375" stroke="white" stroke-width="5"/>
<line x1="952.007" y1="468" x2="644.993" y2="468" stroke="white" stroke-width="5"/>
<rect x="1607" y="605" width="66" height="99" fill="#D9D9D9"/>
<rect x="1519" y="605" width="68" height="99" fill="#D9D9D9"/>
<rect x="1453" y="605" width="49" height="99" fill="#D9D9D9"/>
<rect x="1384" y="605" width="49" height="99" fill="#D9D9D9"/>
<rect x="1316" y="605" width="49" height="99" fill="#D9D9D9"/>
<rect x="1167" y="605" width="49" height="99" fill="#D9D9D9"/>
<rect x="1232" y="605" width="68" height="99" fill="#D9D9D9"/>
<rect x="1102" y="605" width="49" height="99" fill="#D9D9D9"/>
<rect x="1037" y="605" width="49" height="99" fill="#D9D9D9"/>
<rect x="972" y="605" width="49" height="99" fill="#D9D9D9"/>
<rect x="862" y="601" width="89" height="99" fill="#D9D9D9"/>
<rect x="444" y="714" width="49" height="99" fill="#D9D9D9"/>
<rect x="488" y="601" width="49" height="99" fill="#D9D9D9"/>
<rect x="621" y="601" width="49" height="99" fill="#D9D9D9"/>
<rect x="31" y="830" width="49" height="99" fill="#D9D9D9"/>
<rect x="99" y="828" width="49" height="99" fill="#D9D9D9"/>
<rect x="163" y="828" width="49" height="99" fill="#D9D9D9"/>
<rect x="223" y="828" width="49" height="99" fill="#D9D9D9"/>
<rect x="287" y="828" width="49" height="99" fill="#D9D9D9"/>
<rect x="352" y="828" width="49" height="99" fill="#D9D9D9"/>
<rect x="287" y="927" width="49" height="99" fill="#D9D9D9"/>
<rect x="438" y="828" width="49" height="99" fill="#D9D9D9"/>
<rect x="526" y="830" width="49" height="99" fill="#D9D9D9"/>
<rect x="617" y="828" width="49" height="101" fill="#D9D9D9"/>
<rect x="750" y="828" width="88" height="102" fill="#D9D9D9"/>
<rect x="617" y="928" width="49" height="99" fill="#D9D9D9"/>
<rect x="1606" y="145" width="49" height="99" fill="#D9D9D9"/>
<rect x="1674" y="145" width="49" height="99" fill="#D9D9D9"/>
<rect x="1848" y="145" width="49" height="99" fill="#D9D9D9"/>
<rect x="1916" y="145" width="49" height="99" fill="#D9D9D9"/>
<rect x="1606" y="260" width="49" height="99" fill="#D9D9D9"/>
<rect x="1674" y="260" width="49" height="99" fill="#D9D9D9"/>
<rect x="1736" y="260" width="49" height="99" fill="#D9D9D9"/>
<rect x="1804" y="260" width="49" height="99" fill="#D9D9D9"/>
<rect x="1868" y="260" width="49" height="99" fill="#D9D9D9"/>
<rect x="1935" y="260" width="49" height="99" fill="#D9D9D9"/>
<rect x="1625" y="377" width="49" height="99" fill="#D9D9D9"/>
<rect x="1692" y="377" width="49" height="99" fill="#D9D9D9"/>
<rect x="1847" y="377" width="49" height="99" fill="#D9D9D9"/>
<rect x="1916" y="377" width="49" height="99" fill="#D9D9D9"/>
<rect x="1759" y="377" width="49" height="99" fill="#D9D9D9"/>
</svg>
